<svg xmlns="http://www.w3.org/2000/svg" viewBox="0 0 415.33 48.46" aria-label="Knowmax" class="_root_12d5x_1 _navigation_12d5x_5" style="--colorKnow: var(--colorBrand); --colorMax: var(--colorText);">
  <defs>
    <style>.cls-1{fill:#279ADB;}.cls-2{fill:#000000;}</style>
  </defs>
  <g id="Layer_2" data-name="Layer 2">
    <g id="Layer_1-2" data-name="Layer 1">
      <path class="cls-1" d="M351.8,37.77V36.05m0-5.62,0-1V22.21c0-6.92-4.36-7.83-14.29-7.83H328c-8.12,0-9.7,1.95-9.7,5.12v1.35h-6.47V19c0-7,4.44-9.86,16-9.86h10.22c12,0,20.17,1.81,20.17,13.24V48.08H351.8V44.24l0-2.1"></path>
      <polygon class="cls-1" points="315.17 47.92 308.12 47.92 292.71 13.86 280.18 47.92 270.58 47.92 258.04 13.86 242.63 47.92 235.59 47.92 253.55 8.44 262.76 8.44 275.38 42.5 287.99 8.44 297.2 8.44 315.17 47.92"></polygon>
      <path class="cls-2" d="M0,0H6.65V23.33h.43l23-14.92H40.41l.16.15L13.34,26,45.75,47.69l-.16.16H35.23L6.69,28.74h0V47.85H0Z"></path>
      <path class="cls-2" d="M50.22,8.41H56.4v6.8h.16C59,9.1,64.22,7.79,72.49,7.79h10c12.45,0,16.39,6.26,16.39,13.37V47.85H92.21V22.79c0-5.8-1.62-9.59-14.54-9.59H76c-15.54,0-19.1,2.94-19.1,12.22V47.85H50.22Z"></path>
      <path class="cls-2" d="M107.83,23.79c0-13,9.2-16,21.8-16h9.52c12.6,0,21.8,3,21.8,16v8.67c0,13-9.2,16-21.8,16h-9.52c-12.6,0-21.8-3-21.8-16Zm46.47.39c0-9.2-5.41-11-13.14-11H127.62c-7.73,0-13.14,1.78-13.14,11v7.89c0,9.2,5.41,11,13.14,11h13.54c7.73,0,13.14-1.78,13.14-11Z"></path>
      <path class="cls-2" d="M164.19,8.41h7l15.39,34,12.53-34h9.59l12.53,34,15.39-34h7L225.76,47.85h-9.21l-12.6-34-12.61,34h-9.2Z"></path>
      <polygon class="cls-1" points="384.78 27.66 366.34 9.53 375.33 9.53 389.42 23.77 403.52 9.53 412.51 9.53 394.07 27.66 415.33 48.39 405.96 48.39 389.42 31.55 372.89 48.39 363.52 48.39 384.78 27.66"></polygon>
    </g>
  </g>
</svg>